# xmcd CD database file
#
# Track frame offsets:
#	150
#	14694
#	32895
#	53920
#	69886
#	86426
#	99471
#	117144
#	138608
#	158882
#	176621
#	193697
#	211714
#	233729
#	249112
#	268829
#	286952
#	299754
#	317464
#	336310
#
# Disc length: 4707 seconds
#
# Revision: 0
# Processed by: cddbd v1.5.2PL0 Copyright (c) Steve Scherf et al.
# Submitted via: CDex 1.51
#
DISCID=23126114
DTITLE=Salsa - SALSA Spirit CD 3 Caliente!
DYEAR=2009
DGENRE=Salsa
TTITLE0=01 TlTO PU ENTE Oye Lo Que Tiene Salsa 
TTITLE1=02 SONORA CARRUSELES Al Son Oe Los Cueros 
TTITLE2=03 PEDRO CONGA Y SU ORa, INTERNATIONAL Donde Estas 
TTITLE3=04 LOS NEt-1US El Mundo Y El Nino 
TTITLE4=05 CESTA ALL STARS El Quinto Oe Beethoven 
TTITLE5=06 CEllA CRUZ Reina Rumba 
TTITLE6=07 LOS VAN VAN Que Le Den Candela 
TTITLE7=08 PAULO FG Pasta Y Tostones 
TTITLE8=09 GRUPO CANEO ouele 
TTITLE9=10 YAMBU Profesor 
TTITLE10=11 CHARANGA HABANERA El Temba 
TTITLE11=12 MANNY OaUENDO Y LlBRE Bailala Pronto 
TTITLE12=13 CANDIDO FABRE Y SU BANDA El Granmy 
TTITLE13=14 AFRO SALSA Bane 
TTITLE14=15 ANTHONY CRUZ Mil Chuli Chuli 
TTITLE15=16 SALSA FEVER Razones 
TTITLE16=17 IBRAHIM FERRER FEAT. TERESA GARCIA CATURLAAusencia 
TTITLE17=18ARIS MARTINEZ No Tiguere Gallo Ni Piraguayo 
TTITLE18=19 SON DE ORIENTE La Rumba Oe Las Calaveras 
TTITLE19=20 CALLE 23 FEAT. EL NI NO La Manteca Oe Corojo 
EXTD=YEAR: 2009
EXTT0=
EXTT1=
EXTT2=
EXTT3=
EXTT4=
EXTT5=
EXTT6=
EXTT7=
EXTT8=
EXTT9=
EXTT10=
EXTT11=
EXTT12=
EXTT13=
EXTT14=
EXTT15=
EXTT16=
EXTT17=
EXTT18=
EXTT19=
PLAYORDER=
